<?xml version="1.0" encoding="UTF-8" standalone="no"?>
<!-- Created with Inkscape (http://www.inkscape.org/) -->

<svg
   version="1.1"
   id="svg840"
   xml:space="preserve"
   width="1365.3333"
   height="1024"
   viewBox="0 0 1365.3333 1024"
   xmlns="http://www.w3.org/2000/svg"
   xmlns:svg="http://www.w3.org/2000/svg"><defs
     id="defs844"><clipPath
       clipPathUnits="userSpaceOnUse"
       id="clipPath856"><path
         d="M 0,0 H 1024 V 768 H 0 Z"
         id="path854" /></clipPath><clipPath
       clipPathUnits="userSpaceOnUse"
       id="clipPath880"><path
         d="m 899.0034,674.6463 h 73.98148 v 34.34917 H 899.0034 Z"
         id="path878" /></clipPath><clipPath
       clipPathUnits="userSpaceOnUse"
       id="clipPath970"><path
         d="M 0,0 H 1024 V 768 H 0 Z"
         id="path968" /></clipPath><clipPath
       clipPathUnits="userSpaceOnUse"
       id="clipPath996"><path
         d="m 191,502 h 236 v 99 H 191 Z"
         id="path994" /></clipPath><clipPath
       clipPathUnits="userSpaceOnUse"
       id="clipPath1010"><path
         d="m 189.7154,504 h 238.5692 v 95 H 189.7154 Z"
         id="path1008" /></clipPath><clipPath
       clipPathUnits="userSpaceOnUse"
       id="clipPath1030"><path
         d="m 303.2,600 v 46.3361 h 11.6 V 600 Z"
         id="path1028" /></clipPath><clipPath
       clipPathUnits="userSpaceOnUse"
       id="clipPath1036"><path
         d="M 0,0 H 1024 V 768 H 0 Z"
         id="path1034" /></clipPath><clipPath
       clipPathUnits="userSpaceOnUse"
       id="clipPath1050"><path
         d="m 423.9942,545.8639 h 246.3801 v 11.6 H 423.9942 Z"
         id="path1048" /></clipPath><clipPath
       clipPathUnits="userSpaceOnUse"
       id="clipPath1064"><path
         d="m 446.1325,551.2239 h 165.8559 v 43.15991 H 446.1325 Z"
         id="path1062" /></clipPath><clipPath
       clipPathUnits="userSpaceOnUse"
       id="clipPath1078"><path
         d="M 0,0 H 1024 V 768 H 0 Z"
         id="path1076" /></clipPath><clipPath
       clipPathUnits="userSpaceOnUse"
       id="clipPath1092"><path
         d="M 670,501 H 813 V 601 H 670 Z"
         id="path1090" /></clipPath><clipPath
       clipPathUnits="userSpaceOnUse"
       id="clipPath1106"><path
         d="m 191,360.6639 h 236 v 99 H 191 Z"
         id="path1104" /></clipPath><clipPath
       clipPathUnits="userSpaceOnUse"
       id="clipPath1120"><path
         d="m 189.7154,362.6639 h 238.5692 v 95 H 189.7154 Z"
         id="path1118" /></clipPath><clipPath
       clipPathUnits="userSpaceOnUse"
       id="clipPath1140"><path
         d="M 303.2,458.6639 V 505 h 11.6 v -46.3361 z"
         id="path1138" /></clipPath><clipPath
       clipPathUnits="userSpaceOnUse"
       id="clipPath1146"><path
         d="M 0,0 H 1024 V 768 H 0 Z"
         id="path1144" /></clipPath><clipPath
       clipPathUnits="userSpaceOnUse"
       id="clipPath1160"><path
         d="m 424,403.8639 h 246.3801 v 11.6 H 424 Z"
         id="path1158" /></clipPath><clipPath
       clipPathUnits="userSpaceOnUse"
       id="clipPath1174"><path
         d="m 430.7903,411.2239 h 232.5519 v 43.15991 H 430.7903 Z"
         id="path1172" /></clipPath><clipPath
       clipPathUnits="userSpaceOnUse"
       id="clipPath1188"><path
         d="M 0,0 H 1024 V 768 H 0 Z"
         id="path1186" /></clipPath><clipPath
       clipPathUnits="userSpaceOnUse"
       id="clipPath1202"><path
         d="M 670,361 H 813 V 461 H 670 Z"
         id="path1200" /></clipPath><clipPath
       clipPathUnits="userSpaceOnUse"
       id="clipPath1216"><path
         d="m 191,218.6639 h 236 v 99 H 191 Z"
         id="path1214" /></clipPath><clipPath
       clipPathUnits="userSpaceOnUse"
       id="clipPath1230"><path
         d="m 189.7154,220.6639 h 238.5692 v 95 H 189.7154 Z"
         id="path1228" /></clipPath><clipPath
       clipPathUnits="userSpaceOnUse"
       id="clipPath1250"><path
         d="M 303.2,316.6639 V 363 h 11.6 v -46.3361 z"
         id="path1248" /></clipPath><clipPath
       clipPathUnits="userSpaceOnUse"
       id="clipPath1256"><path
         d="M 0,0 H 1024 V 768 H 0 Z"
         id="path1254" /></clipPath><clipPath
       clipPathUnits="userSpaceOnUse"
       id="clipPath1270"><path
         d="m 424,260.8639 h 246.3801 v 11.6 H 424 Z"
         id="path1268" /></clipPath><clipPath
       clipPathUnits="userSpaceOnUse"
       id="clipPath1284"><path
         d="m 430.7903,268.2239 h 232.5519 v 43.15991 H 430.7903 Z"
         id="path1282" /></clipPath><clipPath
       clipPathUnits="userSpaceOnUse"
       id="clipPath1298"><path
         d="M 0,0 H 1024 V 768 H 0 Z"
         id="path1296" /></clipPath><clipPath
       clipPathUnits="userSpaceOnUse"
       id="clipPath1312"><path
         d="M 670,219 H 813 V 319 H 670 Z"
         id="path1310" /></clipPath><clipPath
       clipPathUnits="userSpaceOnUse"
       id="clipPath1326"><path
         d="M 234,75 H 381 V 179 H 234 Z"
         id="path1324" /></clipPath><clipPath
       clipPathUnits="userSpaceOnUse"
       id="clipPath1340"><path
         d="M 236,77 H 379 V 177 H 236 Z"
         id="path1338" /></clipPath><clipPath
       clipPathUnits="userSpaceOnUse"
       id="clipPath1354"><path
         d="M 302.2,175.6639 V 222 h 11.6 v -46.3361 z"
         id="path1352" /></clipPath><clipPath
       clipPathUnits="userSpaceOnUse"
       id="clipPath1360"><path
         d="M 0,0 H 1024 V 768 H 0 Z"
         id="path1358" /></clipPath><clipPath
       clipPathUnits="userSpaceOnUse"
       id="clipPath1374"><path
         d="M 0,0 H 1024 V 768 H 0 Z"
         id="path1372" /></clipPath></defs><g
     id="g846"
     transform="matrix(1.3333333,0,0,-1.3333333,0,1024)"><g
       id="g848" /><g
       id="g990"><g
         id="g992"
         clip-path="url(#clipPath996)"><path
           d="m 208,599 h 202 c 8.2843,0 15,-6.7157 15,-15 v -65 c 0,-8.2843 -6.7157,-15 -15,-15 H 208 c -8.2843,0 -15,6.7157 -15,15 v 65 c 0,8.2843 6.7157,15 15,15 z"
           style="fill:#cbcbcb;fill-opacity:1;fill-rule:nonzero;stroke:none"
           id="path998" /><g
           id="g1000"
           transform="matrix(1,0,0,-1,193,599)"><path
             d="m 15,0 h 202 c 8.2843,0 15,6.715729 15,15 v 65 c 0,8.28427 -6.7157,15 -15,15 H 15 C 6.715729,95 0,88.28427 0,80 V 15 C 0,6.715729 6.715729,0 15,0 Z"
             style="fill:none;stroke:#000000;stroke-width:2;stroke-linecap:butt;stroke-linejoin:miter;stroke-miterlimit:4;stroke-dasharray:none;stroke-opacity:1"
             id="path1002" /></g></g></g><g
       id="g1004"><g
         id="g1006"
         clip-path="url(#clipPath1010)"><g
           id="g1012"
           transform="translate(242.5687,558.5414)"><text
             transform="scale(1,-1)"
             style="font-variant:normal;font-weight:300;font-size:30px;font-family:HelveticaNeue;-inkscape-font-specification:HelveticaNeue-Light;writing-mode:lr-tb;fill:#000000;fill-opacity:1;fill-rule:nonzero;stroke:none"
             id="text1016"><tspan
               x="0 18.9 28.35 44.459999 52.23 67.800003 76.139999 96.150002 111.72 127.29 132.84"
               y="0"
               id="tspan1014">Prüfe Real </tspan></text></g><g
           id="g1018"
           transform="translate(255.645,522.5414)"><text
             transform="scale(1,-1)"
             style="font-variant:normal;font-weight:300;font-size:30px;font-family:HelveticaNeue;-inkscape-font-specification:HelveticaNeue-Light;writing-mode:lr-tb;fill:#000000;fill-opacity:1;fill-rule:nonzero;stroke:none"
             id="text1022"><tspan
               x="0 18.9 35.009998 50.580002 67.800003 84.480003"
               y="0"
               id="tspan1020">Shadow</tspan></text></g></g></g><g
       id="g1024"><g
         id="g1026"
         clip-path="url(#clipPath1030)"><g
           id="g1032"
           clip-path="url(#clipPath1036)"><g
             id="g1038"
             transform="matrix(0,1,1,0,309,601)"><path
               d="m 6.2,0 h 1 37.13612"
               style="fill:none;stroke:#000000;stroke-width:2;stroke-linecap:butt;stroke-linejoin:miter;stroke-miterlimit:4;stroke-dasharray:none;stroke-opacity:1"
               id="path1040" /></g><path
             d="m 304.2,610.6 4.8,-9.6 4.8,9.6 -4.8,-2.4 z"
             style="fill:#000000;fill-opacity:1;fill-rule:nonzero;stroke:none"
             id="path1042" /></g></g></g><g
       id="g1044"><g
         id="g1046"
         clip-path="url(#clipPath1050)"><g
           id="g1052"
           transform="matrix(1,0,0,-1,424.9942,551.6642)"><path
             d="m 238.1801,3.046621e-4 -1,-1.2791e-6 L 0,0"
             style="fill:none;stroke:#000000;stroke-width:2;stroke-linecap:butt;stroke-linejoin:miter;stroke-miterlimit:4;stroke-dasharray:none;stroke-opacity:1"
             id="path1054" /></g><path
           d="m 659.7743,546.8639 9.6,4.7999 -9.6,4.8001 2.4,-4.8 z"
           style="fill:#000000;fill-opacity:1;fill-rule:nonzero;stroke:none"
           id="path1056" /></g></g><g
       id="g1058"><g
         id="g1060"
         clip-path="url(#clipPath1064)"><g
           id="g1066"
           transform="translate(453.7124,564.1119)"><text
             transform="scale(1,-1)"
             style="font-variant:normal;font-weight:300;font-size:24px;font-family:HelveticaNeue;-inkscape-font-specification:HelveticaNeue-Light;writing-mode:lr-tb;fill:#000000;fill-opacity:1;fill-rule:nonzero;stroke:none"
             id="text1070"><tspan
               x="0 12 24.455999 28.896 41.784 54.240002 60.911999 73.800003 87.143997 98.688004 111.576 124.464 137.808"
               y="0"
               id="tspan1068">keine Lösung?</tspan></text></g></g></g><g
       id="g1072"><g
         id="g1074"
         clip-path="url(#clipPath1078)"><path
           d="m 792.0581,586.3553 c 27.9225,-19.5262 27.9225,-51.1844 0,-70.7106 -27.9224,-19.5263 -73.1938,-19.5263 -101.1162,0 -27.9225,19.5262 -27.9225,51.1844 0,70.7106 27.9224,19.5263 73.1938,19.5263 101.1162,0"
           style="fill:#ff6251;fill-opacity:1;fill-rule:nonzero;stroke:none"
           id="path1080" /><g
           id="g1082"
           transform="matrix(1,0,0,-1,670,601)"><path
             d="m 122.0581,14.64466 c 27.9225,19.52622 27.9225,51.18446 0,70.71068 -27.92244,19.52626 -73.19377,19.52626 -101.11623,0 -27.922492,-19.52622 -27.922492,-51.18446 0,-70.71068 27.92246,-19.526214 73.19379,-19.526214 101.11623,0"
             style="fill:none;stroke:#000000;stroke-width:2;stroke-linecap:butt;stroke-linejoin:miter;stroke-miterlimit:4;stroke-dasharray:none;stroke-opacity:1"
             id="path1084" /></g></g></g><g
       id="g1086"><g
         id="g1088"
         clip-path="url(#clipPath1092)"><g
           id="g1094"
           transform="translate(694.445,540.0258)"><text
             transform="scale(1,-1)"
             style="font-variant:normal;font-weight:300;font-size:30px;font-family:HelveticaNeue;-inkscape-font-specification:HelveticaNeue-Light;writing-mode:lr-tb;fill:#000000;fill-opacity:1;fill-rule:nonzero;stroke:none"
             id="text1098"><tspan
               x="0 20.549999 41.669998 60.57 77.43"
               y="0"
               id="tspan1096">UNSAT</tspan></text></g></g></g><g
       id="g1100"><g
         id="g1102"
         clip-path="url(#clipPath1106)"><path
           d="m 208,457.6639 h 202 c 8.2843,0 15,-6.7157 15,-15 v -65 c 0,-8.2843 -6.7157,-15 -15,-15 H 208 c -8.2843,0 -15,6.7157 -15,15 v 65 c 0,8.2843 6.7157,15 15,15 z"
           style="fill:#cbcbcb;fill-opacity:1;fill-rule:nonzero;stroke:none"
           id="path1108" /><g
           id="g1110"
           transform="matrix(1,0,0,-1,193,457.6639)"><path
             d="m 15,0 h 202 c 8.2843,0 15,6.715729 15,15 v 65 c 0,8.28427 -6.7157,15 -15,15 H 15 C 6.715729,95 0,88.28427 0,80 V 15 C 0,6.715729 6.715729,0 15,0 Z"
             style="fill:none;stroke:#000000;stroke-width:2;stroke-linecap:butt;stroke-linejoin:miter;stroke-miterlimit:4;stroke-dasharray:none;stroke-opacity:1"
             id="path1112" /></g></g></g><g
       id="g1114"><g
         id="g1116"
         clip-path="url(#clipPath1120)"><g
           id="g1122"
           transform="translate(240.6337,417.2053)"><text
             transform="scale(1,-1)"
             style="font-variant:normal;font-weight:300;font-size:30px;font-family:HelveticaNeue;-inkscape-font-specification:HelveticaNeue-Light;writing-mode:lr-tb;fill:#000000;fill-opacity:1;fill-rule:nonzero;stroke:none"
             id="text1126"><tspan
               x="0 18.9 28.35 44.459999 52.23 67.800003 76.139999 96.690002 112.26 121.71 136.71001"
               y="0"
               id="tspan1124">Prüfe Dark </tspan></text></g><g
           id="g1128"
           transform="translate(255.645,381.2053)"><text
             transform="scale(1,-1)"
             style="font-variant:normal;font-weight:300;font-size:30px;font-family:HelveticaNeue;-inkscape-font-specification:HelveticaNeue-Light;writing-mode:lr-tb;fill:#000000;fill-opacity:1;fill-rule:nonzero;stroke:none"
             id="text1132"><tspan
               x="0 18.9 35.009998 50.580002 67.800003 84.480003"
               y="0"
               id="tspan1130">Shadow</tspan></text></g></g></g><g
       id="g1134"><g
         id="g1136"
         clip-path="url(#clipPath1140)"><g
           id="g1142"
           clip-path="url(#clipPath1146)"><g
             id="g1148"
             transform="matrix(0,1,1,0,309,459.6639)"><path
               d="m 6.2,0 h 1 37.13612"
               style="fill:none;stroke:#000000;stroke-width:2;stroke-linecap:butt;stroke-linejoin:miter;stroke-miterlimit:4;stroke-dasharray:none;stroke-opacity:1"
               id="path1150" /></g><path
             d="m 304.2,469.2639 4.8,-9.6 4.8,9.6 -4.8,-2.4 z"
             style="fill:#000000;fill-opacity:1;fill-rule:nonzero;stroke:none"
             id="path1152" /></g></g></g><g
       id="g1154"><g
         id="g1156"
         clip-path="url(#clipPath1160)"><g
           id="g1162"
           transform="matrix(1,0,0,-1,425,409.6642)"><path
             d="m 238.1801,3.046621e-4 -1,-1.2791e-6 L 0,0"
             style="fill:none;stroke:#000000;stroke-width:2;stroke-linecap:butt;stroke-linejoin:miter;stroke-miterlimit:4;stroke-dasharray:none;stroke-opacity:1"
             id="path1164" /></g><path
           d="m 659.7801,404.8639 9.6,4.7999 -9.6,4.8001 2.4,-4.8 z"
           style="fill:#000000;fill-opacity:1;fill-rule:nonzero;stroke:none"
           id="path1166" /></g></g><g
       id="g1168"><g
         id="g1170"
         clip-path="url(#clipPath1174)"><g
           id="g1176"
           transform="translate(438.3702,424.1119)"><text
             transform="scale(1,-1)"
             style="font-variant:normal;font-weight:300;font-size:24px;font-family:HelveticaNeue;-inkscape-font-specification:HelveticaNeue-Light;writing-mode:lr-tb;fill:#000000;fill-opacity:1;fill-rule:nonzero;stroke:none"
             id="text1180"><tspan
               x="0 13.344 25.799999 38.688 49.799999 60.911999 73.367996 86.255997 90.695999 95.136002 108.48 120.936 127.608 140.496 153.84 165.384 178.272 191.16 204.504"
               y="0"
               id="tspan1178">ganzzahlige Lösung?</tspan></text></g></g></g><g
       id="g1182"><g
         id="g1184"
         clip-path="url(#clipPath1188)"><path
           d="m 792.0581,446.3553 c 27.9225,-19.5262 27.9225,-51.1844 0,-70.7106 -27.9224,-19.5263 -73.1938,-19.5263 -101.1162,0 -27.9225,19.5262 -27.9225,51.1844 0,70.7106 27.9224,19.5263 73.1938,19.5263 101.1162,0"
           style="fill:#96d35f;fill-opacity:1;fill-rule:nonzero;stroke:none"
           id="path1190" /><g
           id="g1192"
           transform="matrix(1,0,0,-1,670,461)"><path
             d="m 122.0581,14.64466 c 27.9225,19.52622 27.9225,51.18446 0,70.71068 -27.92244,19.52626 -73.19377,19.52626 -101.11623,0 -27.922492,-19.52622 -27.922492,-51.18446 0,-70.71068 27.92246,-19.526214 73.19379,-19.526214 101.11623,0"
             style="fill:none;stroke:#000000;stroke-width:2;stroke-linecap:butt;stroke-linejoin:miter;stroke-miterlimit:4;stroke-dasharray:none;stroke-opacity:1"
             id="path1194" /></g></g></g><g
       id="g1196"><g
         id="g1198"
         clip-path="url(#clipPath1202)"><g
           id="g1204"
           transform="translate(715.28,400.1508)"><text
             transform="scale(1,-1)"
             style="font-variant:normal;font-weight:300;font-size:30px;font-family:HelveticaNeue;-inkscape-font-specification:HelveticaNeue-Light;writing-mode:lr-tb;fill:#000000;fill-opacity:1;fill-rule:nonzero;stroke:none"
             id="text1208"><tspan
               x="0 18.9 35.759998"
               y="0"
               id="tspan1206">SAT</tspan></text></g></g></g><g
       id="g1210"><g
         id="g1212"
         clip-path="url(#clipPath1216)"><path
           d="m 208,315.6639 h 202 c 8.2843,0 15,-6.7157 15,-15 v -65 c 0,-8.2843 -6.7157,-15 -15,-15 H 208 c -8.2843,0 -15,6.7157 -15,15 v 65 c 0,8.2843 6.7157,15 15,15 z"
           style="fill:#cbcbcb;fill-opacity:1;fill-rule:nonzero;stroke:none"
           id="path1218" /><g
           id="g1220"
           transform="matrix(1,0,0,-1,193,315.6639)"><path
             d="m 15,0 h 202 c 8.2843,0 15,6.715729 15,15 v 65 c 0,8.28427 -6.7157,15 -15,15 H 15 C 6.715729,95 0,88.28427 0,80 V 15 C 0,6.715729 6.715729,0 15,0 Z"
             style="fill:none;stroke:#000000;stroke-width:2;stroke-linecap:butt;stroke-linejoin:miter;stroke-miterlimit:4;stroke-dasharray:none;stroke-opacity:1"
             id="path1222" /></g></g></g><g
       id="g1224"><g
         id="g1226"
         clip-path="url(#clipPath1230)"><g
           id="g1232"
           transform="translate(265.3687,275.2053)"><text
             transform="scale(1,-1)"
             style="font-variant:normal;font-weight:300;font-size:30px;font-family:HelveticaNeue;-inkscape-font-specification:HelveticaNeue-Light;writing-mode:lr-tb;fill:#000000;fill-opacity:1;fill-rule:nonzero;stroke:none"
             id="text1236"><tspan
               x="0 17.790001 32.220001 47.790001 62.790001 71.669998 87.239998"
               y="0"
               id="tspan1234">Exakte </tspan></text></g><g
           id="g1238"
           transform="translate(239.835,239.2053)"><text
             transform="scale(1,-1)"
             style="font-variant:normal;font-weight:300;font-size:30px;font-family:HelveticaNeue;-inkscape-font-specification:HelveticaNeue-Light;writing-mode:lr-tb;fill:#000000;fill-opacity:1;fill-rule:nonzero;stroke:none"
             id="text1242"><tspan
               x="0 17.790001 23.34 28.889999 53.880001 59.43 75.540001 91.110001 99.989998 105.54 122.22"
               y="0"
               id="tspan1240">Elimination</tspan></text></g></g></g><g
       id="g1244"><g
         id="g1246"
         clip-path="url(#clipPath1250)"><g
           id="g1252"
           clip-path="url(#clipPath1256)"><g
             id="g1258"
             transform="matrix(0,1,1,0,309,317.6639)"><path
               d="m 6.2,0 h 1 37.13612"
               style="fill:none;stroke:#000000;stroke-width:2;stroke-linecap:butt;stroke-linejoin:miter;stroke-miterlimit:4;stroke-dasharray:none;stroke-opacity:1"
               id="path1260" /></g><path
             d="m 304.2,327.2639 4.8,-9.6 4.8,9.6 -4.8,-2.4 z"
             style="fill:#000000;fill-opacity:1;fill-rule:nonzero;stroke:none"
             id="path1262" /></g></g></g><g
       id="g1264"><g
         id="g1266"
         clip-path="url(#clipPath1270)"><g
           id="g1272"
           transform="matrix(1,0,0,-1,425,266.6642)"><path
             d="m 238.1801,3.046621e-4 -1,-1.2791e-6 L 0,0"
             style="fill:none;stroke:#000000;stroke-width:2;stroke-linecap:butt;stroke-linejoin:miter;stroke-miterlimit:4;stroke-dasharray:none;stroke-opacity:1"
             id="path1274" /></g><path
           d="m 659.7801,261.8639 9.6,4.7999 -9.6,4.8001 2.4,-4.8 z"
           style="fill:#000000;fill-opacity:1;fill-rule:nonzero;stroke:none"
           id="path1276" /></g></g><g
       id="g1278"><g
         id="g1280"
         clip-path="url(#clipPath1284)"><g
           id="g1286"
           transform="translate(438.3702,281.1119)"><text
             transform="scale(1,-1)"
             style="font-variant:normal;font-weight:300;font-size:24px;font-family:HelveticaNeue;-inkscape-font-specification:HelveticaNeue-Light;writing-mode:lr-tb;fill:#000000;fill-opacity:1;fill-rule:nonzero;stroke:none"
             id="text1290"><tspan
               x="0 13.344 25.799999 38.688 49.799999 60.911999 73.367996 86.255997 90.695999 95.136002 108.48 120.936 127.608 140.496 153.84 165.384 178.272 191.16 204.504"
               y="0"
               id="tspan1288">ganzzahlige Lösung?</tspan></text></g></g></g><g
       id="g1292"><g
         id="g1294"
         clip-path="url(#clipPath1298)"><path
           d="m 792.0581,304.3553 c 27.9225,-19.5262 27.9225,-51.1844 0,-70.7106 -27.9224,-19.5263 -73.1938,-19.5263 -101.1162,0 -27.9225,19.5262 -27.9225,51.1844 0,70.7106 27.9224,19.5263 73.1938,19.5263 101.1162,0"
           style="fill:#96d35f;fill-opacity:1;fill-rule:nonzero;stroke:none"
           id="path1300" /><g
           id="g1302"
           transform="matrix(1,0,0,-1,670,319)"><path
             d="m 122.0581,14.64466 c 27.9225,19.52622 27.9225,51.18446 0,70.71068 -27.92244,19.52626 -73.19377,19.52626 -101.11623,0 -27.922492,-19.52622 -27.922492,-51.18446 0,-70.71068 27.92246,-19.526214 73.19379,-19.526214 101.11623,0"
             style="fill:none;stroke:#000000;stroke-width:2;stroke-linecap:butt;stroke-linejoin:miter;stroke-miterlimit:4;stroke-dasharray:none;stroke-opacity:1"
             id="path1304" /></g></g></g><g
       id="g1306"><g
         id="g1308"
         clip-path="url(#clipPath1312)"><g
           id="g1314"
           transform="translate(715.28,258.1508)"><text
             transform="scale(1,-1)"
             style="font-variant:normal;font-weight:300;font-size:30px;font-family:HelveticaNeue;-inkscape-font-specification:HelveticaNeue-Light;writing-mode:lr-tb;fill:#000000;fill-opacity:1;fill-rule:nonzero;stroke:none"
             id="text1318"><tspan
               x="0 18.9 35.759998"
               y="0"
               id="tspan1316">SAT</tspan></text></g></g></g><g
       id="g1320"><g
         id="g1322"
         clip-path="url(#clipPath1326)"><path
           d="m 358.0581,162.3553 c 27.9225,-19.5262 27.9225,-51.1844 0,-70.71064 -27.9224,-19.52621 -73.1938,-19.52621 -101.1162,0 -27.9225,19.52624 -27.9225,51.18444 0,70.71064 27.9224,19.5263 73.1938,19.5263 101.1162,0"
           style="fill:#ff6251;fill-opacity:1;fill-rule:nonzero;stroke:none"
           id="path1328" /><g
           id="g1330"
           transform="matrix(1,0,0,-1,236,177)"><path
             d="m 122.0581,14.64466 c 27.9225,19.52622 27.9225,51.18446 0,70.71068 -27.92244,19.52626 -73.19377,19.52626 -101.11623,0 -27.922492,-19.52622 -27.922492,-51.18446 0,-70.71068 27.92246,-19.526214 73.19379,-19.526214 101.11623,0"
             style="fill:none;stroke:#000000;stroke-width:2;stroke-linecap:butt;stroke-linejoin:miter;stroke-miterlimit:4;stroke-dasharray:none;stroke-opacity:1"
             id="path1332" /></g></g></g><g
       id="g1334"><g
         id="g1336"
         clip-path="url(#clipPath1340)"><g
           id="g1342"
           transform="translate(260.445,116.0258)"><text
             transform="scale(1,-1)"
             style="font-variant:normal;font-weight:300;font-size:30px;font-family:HelveticaNeue;-inkscape-font-specification:HelveticaNeue-Light;writing-mode:lr-tb;fill:#000000;fill-opacity:1;fill-rule:nonzero;stroke:none"
             id="text1346"><tspan
               x="0 20.549999 41.669998 60.57 77.43"
               y="0"
               id="tspan1344">UNSAT</tspan></text></g></g></g><g
       id="g1348"><g
         id="g1350"
         clip-path="url(#clipPath1354)"><g
           id="g1356"
           clip-path="url(#clipPath1360)"><g
             id="g1362"
             transform="matrix(0,1,1,0,308,176.6639)"><path
               d="m 6.2,0 h 1 37.13612"
               style="fill:none;stroke:#000000;stroke-width:2;stroke-linecap:butt;stroke-linejoin:miter;stroke-miterlimit:4;stroke-dasharray:none;stroke-opacity:1"
               id="path1364" /></g><path
             d="m 303.2,186.2639 4.8,-9.6 4.8,9.6 -4.8,-2.4 z"
             style="fill:#000000;fill-opacity:1;fill-rule:nonzero;stroke:none"
             id="path1366" /></g></g></g><g
       id="g1368"><g
         id="g1370"
         clip-path="url(#clipPath1374)"><g
           id="g1376"
           transform="translate(318.0427,183.1119)"><text
             transform="scale(1,-1)"
             style="font-variant:normal;font-weight:300;font-size:24px;font-family:HelveticaNeue;-inkscape-font-specification:HelveticaNeue-Light;writing-mode:lr-tb;fill:#000000;fill-opacity:1;fill-rule:nonzero;stroke:none"
             id="text1380"><tspan
               x="0 12 24.455999 28.896 41.784 54.240002 60.911999 74.255997 86.711998 99.599998 110.712 121.824 134.28 147.168 151.608 156.048 169.392 181.84801 188.52 201.408 214.752 226.29601 239.18401 252.07201 265.41599"
               y="0"
               id="tspan1378">keine ganzzahlige Lösung?</tspan></text></g></g></g></g></svg>
